<svg width="512" height="512" viewBox="0 0 512 512" fill="none" xmlns="http://www.w3.org/2000/svg">
<circle cx="256" cy="256" r="256" fill="url(#paint0_linear_3254_4)"/>
<circle cx="256" cy="256" r="240" fill="url(#paint1_linear_3254_4)"/>
<mask id="mask0_3254_4" style="mask-type:luminance" maskUnits="userSpaceOnUse" x="0" y="0" width="512" height="512">
<path d="M0 0H512V512H0V0Z" fill="white"/>
</mask>
<g mask="url(#mask0_3254_4)">
</g>
<path d="M265.293 75.8804C274.662 164.985 344.995 237.394 434.418 247.111C446.039 247.366 447.696 263.976 436.032 265.877C424.783 267.109 413.618 269.191 402.751 272.356C381.994 278.324 362.31 287.914 344.762 300.499C322.719 316.292 304.13 336.821 290.522 360.27C276.84 383.794 268.193 410.239 265.293 437.31C264.369 448.897 247.489 448.897 246.565 437.31C237.185 348.195 166.862 275.807 77.429 266.079C64.8517 265.431 64.8623 247.77 77.429 247.111C104.241 244.169 130.362 235.376 153.52 221.559C176.805 207.721 197.041 188.838 212.551 166.641C225.022 148.821 234.455 128.876 240.35 107.932C243.378 97.2272 245.46 86.2564 246.639 75.1901C248.052 63.8476 264.666 64.4848 265.293 75.8698V75.8804Z" fill="#E5CDFE"/>
<defs>
<linearGradient id="paint0_linear_3254_4" x1="256" y1="0" x2="256" y2="512" gradientUnits="userSpaceOnUse">
<stop stop-color="#9A00B2"/>
<stop offset="1" stop-color="#C757D8"/>
</linearGradient>
<linearGradient id="paint1_linear_3254_4" x1="256" y1="16" x2="256" y2="496" gradientUnits="userSpaceOnUse">
<stop stop-color="#480052"/>
<stop offset="1" stop-color="#192170"/>
</linearGradient>
</defs>
</svg>
