<svg width="512" height="512" viewBox="0 0 512 512" fill="none" xmlns="http://www.w3.org/2000/svg">
<g clip-path="url(#clip0_20_273)">
<rect width="512" height="512" fill="url(#paint0_linear_20_273)"/>
<path d="M161.437 307.869C161.584 309.221 161.789 310.565 162.05 311.901C162.312 313.237 162.629 314.557 163 315.867C163.373 317.173 163.802 318.464 164.285 319.736C164.768 321.008 165.301 322.256 165.89 323.483C166.477 324.709 167.117 325.909 167.805 327.083C168.496 328.256 169.234 329.397 170.021 330.507C170.805 331.616 171.637 332.691 172.514 333.731C173.392 334.771 174.312 335.771 175.274 336.733C176.234 337.696 177.237 338.616 178.277 339.493C179.317 340.371 180.392 341.2 181.501 341.987C182.61 342.773 183.752 343.512 184.925 344.2C186.098 344.891 187.296 345.531 188.522 346.117C189.749 346.707 191 347.24 192.272 347.723C193.544 348.205 194.834 348.635 196.141 349.008C197.45 349.381 198.77 349.696 200.106 349.957C201.44 350.219 202.784 350.424 204.136 350.573C217.245 352.008 234.165 352.936 256.008 352.936C234.165 352.936 217.245 353.864 204.136 355.301C202.784 355.448 201.44 355.653 200.106 355.915C198.77 356.176 197.45 356.493 196.141 356.867C194.834 357.24 193.544 357.667 192.272 358.149C191 358.632 189.749 359.168 188.522 359.755C187.296 360.344 186.098 360.981 184.925 361.672C183.752 362.363 182.61 363.099 181.501 363.885C180.392 364.672 179.317 365.504 178.277 366.381C177.237 367.259 176.234 368.179 175.274 369.139C174.312 370.101 173.392 371.101 172.514 372.141C171.637 373.181 170.805 374.256 170.021 375.365C169.234 376.477 168.496 377.619 167.805 378.789C167.117 379.963 166.477 381.163 165.89 382.389C165.301 383.616 164.768 384.864 164.285 386.136C163.802 387.408 163.373 388.699 163 390.008C162.626 391.315 162.312 392.637 162.05 393.971C161.789 395.307 161.584 396.651 161.437 398.003C160 411.109 159.072 428.029 159.072 449.872C159.072 428.029 158.141 411.109 156.706 398.003C156.56 396.651 156.354 395.307 156.093 393.971C155.832 392.637 155.514 391.315 155.141 390.008C154.768 388.699 154.341 387.408 153.858 386.136C153.376 384.864 152.84 383.616 152.253 382.389C151.664 381.163 151.026 379.963 150.336 378.789C149.645 377.619 148.909 376.477 148.122 375.365C147.336 374.256 146.504 373.181 145.626 372.141C144.749 371.101 143.829 370.101 142.869 369.139C141.906 368.179 140.906 367.259 139.866 366.381C138.826 365.504 137.752 364.672 136.64 363.885C135.53 363.099 134.389 362.363 133.216 361.672C132.045 360.981 130.845 360.344 129.618 359.755C128.392 359.168 127.141 358.632 125.869 358.149C124.597 357.667 123.309 357.24 122 356.867C120.693 356.493 119.37 356.176 118.034 355.915C116.701 355.653 115.357 355.448 114.005 355.301C100.896 353.864 83.9757 352.936 62.1357 352.936C83.9757 352.936 100.896 352.008 114.005 350.573C115.357 350.424 116.701 350.219 118.034 349.957C119.37 349.696 120.693 349.379 122 349.008C123.309 348.635 124.597 348.205 125.869 347.723C127.141 347.24 128.392 346.707 129.618 346.117C130.845 345.531 132.045 344.891 133.216 344.2C134.389 343.512 135.53 342.773 136.64 341.987C137.752 341.2 138.826 340.371 139.866 339.493C140.906 338.616 141.906 337.696 142.869 336.733C143.829 335.771 144.749 334.771 145.626 333.731C146.504 332.691 147.336 331.616 148.122 330.507C148.909 329.397 149.645 328.256 150.336 327.083C151.026 325.909 151.664 324.709 152.253 323.483C152.84 322.256 153.376 321.008 153.858 319.736C154.341 318.464 154.768 317.173 155.141 315.867C155.514 314.557 155.832 313.237 156.093 311.901C156.354 310.565 156.56 309.221 156.706 307.869C158.141 294.763 159.072 277.843 159.072 256C159.072 277.843 160 294.763 161.437 307.869Z" fill="white"/>
<path d="M318.952 129.006C319.174 131.032 319.48 133.048 319.872 135.051C320.264 137.054 320.739 139.035 321.299 140.998C321.859 142.96 322.502 144.896 323.224 146.803C323.95 148.71 324.752 150.584 325.632 152.424C326.515 154.264 327.475 156.064 328.507 157.822C329.542 159.582 330.648 161.294 331.83 162.958C333.008 164.624 334.256 166.235 335.571 167.795C336.886 169.355 338.267 170.856 339.71 172.299C341.152 173.742 342.654 175.12 344.214 176.438C345.771 177.752 347.384 179 349.048 180.179C350.715 181.358 352.427 182.467 354.184 183.499C355.944 184.534 357.744 185.494 359.584 186.376C361.424 187.256 363.296 188.059 365.206 188.784C367.112 189.507 369.048 190.15 371.011 190.71C372.971 191.27 374.955 191.744 376.958 192.136C378.96 192.528 380.974 192.835 383.003 193.056C402.664 195.211 428.043 196.603 460.808 196.603C428.043 196.603 402.664 197.995 383.003 200.15C380.974 200.371 378.96 200.678 376.958 201.07C374.955 201.462 372.971 201.939 371.011 202.499C369.048 203.056 367.112 203.699 365.206 204.422C363.296 205.147 361.424 205.95 359.584 206.832C357.744 207.712 355.944 208.672 354.184 209.707C352.427 210.742 350.715 211.848 349.048 213.027C347.384 214.206 345.771 215.454 344.214 216.768C342.654 218.086 341.152 219.464 339.71 220.907C338.267 222.35 336.886 223.851 335.571 225.411C334.256 226.971 333.008 228.582 331.83 230.248C330.648 231.912 329.542 233.624 328.507 235.384C327.472 237.142 326.515 238.942 325.632 240.782C324.752 242.622 323.947 244.496 323.224 246.403C322.502 248.31 321.859 250.246 321.299 252.208C320.739 254.171 320.264 256.152 319.872 258.155C319.48 260.158 319.174 262.174 318.952 264.2C316.798 283.862 315.406 309.24 315.406 342.006C315.406 309.243 314.011 283.862 311.859 264.2C311.638 262.174 311.331 260.158 310.939 258.155C310.547 256.152 310.07 254.171 309.51 252.208C308.95 250.246 308.31 248.31 307.584 246.403C306.862 244.496 306.059 242.622 305.176 240.782C304.294 238.942 303.336 237.142 302.302 235.384C301.267 233.624 300.16 231.912 298.982 230.248C297.803 228.582 296.555 226.971 295.24 225.411C293.923 223.851 292.544 222.35 291.102 220.907C289.659 219.464 288.158 218.086 286.598 216.768C285.038 215.454 283.424 214.206 281.76 213.027C280.096 211.848 278.384 210.742 276.624 209.707C274.867 208.672 273.067 207.712 271.227 206.832C269.387 205.95 267.512 205.147 265.606 204.422C263.696 203.699 261.763 203.059 259.8 202.499C257.838 201.939 255.856 201.462 253.854 201.07C251.851 200.678 249.835 200.371 247.806 200.15C228.144 197.995 202.766 196.603 170.003 196.603C202.766 196.603 228.144 195.211 247.806 193.056C249.835 192.835 251.851 192.528 253.854 192.136C255.856 191.744 257.838 191.27 259.8 190.71C261.763 190.15 263.696 189.507 265.606 188.784C267.512 188.059 269.387 187.256 271.227 186.374C273.067 185.494 274.867 184.534 276.624 183.499C278.384 182.467 280.096 181.358 281.76 180.179C283.424 179 285.038 177.752 286.598 176.438C288.158 175.12 289.659 173.742 291.102 172.299C292.544 170.856 293.923 169.355 295.238 167.795C296.555 166.235 297.803 164.624 298.982 162.958C300.16 161.294 301.267 159.582 302.302 157.822C303.336 156.064 304.294 154.264 305.176 152.424C306.059 150.584 306.862 148.71 307.584 146.803C308.31 144.894 308.95 142.96 309.51 140.998C310.07 139.035 310.547 137.054 310.939 135.051C311.331 133.048 311.638 131.032 311.859 129.006C314.011 109.344 315.406 83.9655 315.406 51.2002C315.406 83.9629 316.798 109.344 318.952 129.006Z" fill="white"/>
</g>
<defs>
<linearGradient id="paint0_linear_20_273" x1="256" y1="7.62939e-06" x2="256" y2="512" gradientUnits="userSpaceOnUse">
<stop stop-color="#192170"/>
<stop offset="1" stop-color="#480052"/>
</linearGradient>
<clipPath id="clip0_20_273">
<rect width="512" height="512" fill="white"/>
</clipPath>
</defs>
</svg>
